# xmcd
#
# Track frame offsets: 
#        150
#        14947
#        34970
#        45939
#        56285
#        67214
#        86484
#        103415
#        122230
#        135544
#
# Disc length: 1930 seconds
#
# Revision: 0
# Processed by: cddbd v1.4PL0 Copyright (c) Steve Scherf et al.
# Submitted via: ExactAudioCopy v0.90b4
#
DISCID=9007880a
DTITLE=The Flying Burrito Brothers - Flying Again
DYEAR=1975
DGENRE=Country Rock
TTITLE0=Easy To Get On
TTITLE1=Wind And Rain
TTITLE2=Why Baby Why
TTITLE3=Dim Lights Thick Smoke
TTITLE4=You Left The Water Running
TTITLE5=Building Fires
TTITLE6=Desert Childhood
TTITLE7=Bon Soir Blues
TTITLE8=River Road
TTITLE9=Hot Burrito #3
EXTD=
EXTT0=
EXTT1=
EXTT2=
EXTT3=
EXTT4=
EXTT5=
EXTT6=
EXTT7=
EXTT8=
EXTT9=
PLAYORDER=
